Patient4_TMGait_0pt3_01_left_19_EMG.mot
version=1
nRows=23
nColumns=33
inDegrees=no
endheader
time	1LAddLong	2LGlutMax	3LGlutMed	4LIliopsoas	5LSemiMemb	6LBicFemLong	7LRecFem	8LVastMed	9LVastLat	10LGasMed	11LTibAnt	12lTibPost	13LPeroneusLong	14LSol	15LExtDigLong	16LFlexDigLong	17RAddLong	18RGlutMax	19RGlutMed	20RIliopsoas	21RSemiMemb	22RBicFemLong	23RRecFem	24RVastMed	25RVastLat	26RGasMed	27RTibAnt	28RTibPost	29RPeroneusLong	30RSol	31RExtDigLong	32RFlexDigLong
37.488	-0.001373	-0.049744	0.029449	0.014343	-0.010681	0.011292	0.005646	-0.001984	-0.030975	0.003815	-0.009155	0.003052	-0.007782	0.010223	0.06012	-0.002441	-0.021973	-0.089722	-0.15595	0.29221	-0.01709	-0.063324	-0.1062	-0.10132	-0.12726	-0.049133	-0.084229	-0.29159	0.076904	-0.55237	-0.004578	-0.008392
37.489	0.007477	-0.079193	0.069733	0.026245	-0.009918	0.025177	-0.024109	-0.002441	-0.035858	-0.003357	-0.001526	-0.001068	-0.001373	-0.00473	0.027008	-0.001678	-0.029297	-0.12558	0.3479	0.14923	-0.009613	-0.063324	-0.48508	-0.13763	0.46478	-0.044708	-0.074005	0.16968	0.22766	-0.63675	-0.003815	-0.014648
37.49	0.008392	-0.076599	0.046082	0.020752	-0.013733	0.00412	-0.051727	0.004272	-0.036316	0.003357	0.016327	0.005493	0.015869	-0.01297	-0.023193	-0.002899	-0.043488	-0.10742	0.8931	0.056458	0.015717	-0.011139	-0.59265	0.039673	0.62271	-0.030975	-0.047607	0.17075	0.47806	-0.33981	-0.001831	-0.011292
37.491	0.006561	-0.04715	0.0354	0.009155	-0.012817	0.031738	-0.073853	0.004578	-0.032654	-0.00412	0.032501	0.005798	-0.000763	-0.019684	-0.025482	0.011139	-0.007324	-0.003662	0.73517	-0.006256	-0.004883	-0.02182	-0.53665	0.26764	0.40192	-0.03952	-0.013428	0.079346	0.33142	-0.38788	-0.004578	-0.015717
37.492	0.001373	-0.042419	0.005493	-0.008392	-0.009613	0.029449	-0.06958	0.00412	-0.036926	-0.012207	0.034332	0.00412	0.051727	-0.027771	-0.005493	0.00351	0.023041	0.007019	0.52139	-0.012665	0.006714	-0.045776	0.090179	-0.1207	-0.00412	-0.022736	0.019531	0.12726	0.17838	0.098114	-0.003662	-0.005493
37.493	0.007172	-0.023651	0.015106	-0.014648	-0.011902	0.022278	-0.053253	-0.051575	-0.054626	-0.020447	0.006104	0.003204	0.05188	-0.020447	0.022278	0.004272	-0.001831	-0.030365	-0.2771	-0.065765	0.049896	-0.05188	0.20065	-0.047455	-0.29587	-0.015869	0.019073	-0.19867	0.13886	0.35111	-0.003052	-0.013123
37.494	0.010223	-0.035706	0.022583	0.010529	-0.001221	0.01236	-0.03891	-0.014038	-0.039368	-0.020142	0.003357	0.001984	0.014801	-0.002289	0.003967	-0.002289	-0.021973	-0.099335	-0.55618	-0.082703	0.041656	-0.045013	0.094757	0.168	-0.53757	-0.018921	-0.005951	0.27206	0.15549	0.30106	-0.004425	-0.010986
37.495	0	-0.072327	0.009613	-0.00351	-0.017242	0.027466	-0.019684	-0.008392	-0.046539	-0.019073	-0.023956	0.000458	0.018616	0.004272	0.016022	0.000458	-0.021667	-0.16892	-0.72723	-0.057678	0.027161	-0.079956	0.11627	0.4042	-0.39597	0.001221	-0.005188	0.15289	0.1947	0.47775	-0.00061	-0.014648
37.496	0.002289	-0.027466	0.015869	-0.00885	-0.013428	0.005951	-0.027771	-0.003052	-0.04776	0.000763	-0.00885	0.008392	0.024872	0.001068	0.047302	-0.005341	-0.007172	-0.24216	-1.0397	-0.010376	0.047455	-0.10254	0.20523	0.44876	0.11826	-0.028534	0.02121	-0.010529	0.10376	0.50995	-0.009613	-0.010681
37.497	-0.000305	-0.038605	0.006714	-0.010376	-0.011749	0.012665	-0.014038	-0.00473	-0.046692	-0.00946	0.027618	-0.00351	-0.001831	-0.006409	0.048981	-0.002441	0.015869	-0.14755	-0.90164	-0.011902	0.063782	-0.12436	0.29465	0.29373	0.3862	-0.027771	0.024261	-0.072174	0.034485	0.36255	-0.003967	-0.013733
37.498	0.003967	-0.006561	0.017853	-0.018616	-0.008392	0.019073	-0.014343	0.001221	-0.041962	-0.007172	0.11185	0.005035	-0.028687	-0.010986	-0.001678	0.010986	0.034485	-0.052948	-1.0828	-0.034027	-0.12512	-0.08194	0.19852	0.077209	0.38071	-0.009766	-0.00824	0.033112	0.040283	0.2945	-0.004272	-0.011597
37.499	0.012512	-0.040131	0.014343	-0.023804	-0.008545	0.013733	-0.008087	0.006866	-0.047302	0.002289	0.16556	0.001526	-0.050049	-0.0177	-0.044861	-0.001373	0.01236	0.017853	-1.6093	-0.004883	-0.14603	-0.004272	-0.24139	0.041046	0.29007	0.001526	-0.0177	0.013885	0.059052	0.40619	-0.009155	-0.01236
37.5	0.009918	-0.047302	0.03067	-0.01709	-0.015869	0.020447	0.019531	0.010986	-0.048828	-0.015717	-0.0177	0.002899	0.00885	0.000305	-0.06134	0.012054	0.037842	0.037231	-1.3896	0.024414	-0.032043	-0.061646	-0.57953	-0.022736	0.10773	0.000916	-0.010986	0.007782	0.038757	0.32074	-0.005798	-0.007019
37.501	0.007019	-0.029297	0.00885	0.003967	-0.015259	-0.000763	0.033722	0.004272	-0.045624	-0.012512	-0.082703	0.003967	-0.015717	0.002747	-0.021057	0.001678	0.048065	0.17212	-0.3241	-0.006866	0.11627	-0.13519	-0.70221	0.10178	0.17517	0.006256	-0.018616	-0.008545	0.040283	0.10986	-0.000458	-0.010986
37.502	0.014801	-0.035095	-0.007019	0.018158	-0.00946	0.003204	0.036163	0	-0.048218	-0.005798	-0.11917	-0.023041	-0.006409	-0.053406	0.04425	-0.011749	0.050049	0.25833	-0.10757	-0.049133	-0.032349	-0.14328	-0.38895	-0.27512	-0.034943	0.012817	0.030975	-0.037231	-0.052643	-0.023651	-0.001678	-0.013733
37.503	0.018005	-0.019379	-0.014191	0.005493	-0.011902	-0.019531	0.040283	0.000763	-0.040894	-0.005798	-0.1799	0.018921	0.009003	-0.009613	0.42969	-0.005646	0.03067	0.31082	1.0616	-0.067139	-0.23422	-0.066071	-0.24948	-0.60364	-0.28046	0.002899	0.046387	-0.012512	-0.070343	0.005188	-0.004883	-0.012817
37.504	0.00946	-0.023956	-0.029907	0.010834	-0.007019	-0.015869	0.040588	-0.001678	-0.036011	-0.006256	-0.19043	0.005493	0.011902	0.020142	0.023193	-0.006561	0.020752	0.28992	0.46707	-0.061188	-0.00412	-0.056915	-0.27924	-0.88013	-0.4155	0.000763	0.023346	-0.01297	-0.054016	0.000458	-0.003815	-0.013275
37.505	0.011749	-0.0177	-0.031738	0.002594	-0.008545	-0.005493	0.018921	-0.006256	-0.041504	-0.012512	-0.10529	0.002289	0.031891	0.036163	0.20462	-0.006714	0.022736	0.2945	-0.23102	-0.035095	0.072479	-0.11475	-0.26443	-0.88562	-0.31479	-0.005493	0.027618	-0.00824	-0.052338	-0.091248	-0.002594	-0.008087
37.506	0.000305	-0.047455	-0.036774	0.005188	-0.012054	-0.010071	0.010071	-0.000916	-0.041962	-0.015717	0.2272	-0.002289	-0.005646	0.0383	-0.40466	0.006104	-0.003967	0.31006	-0.43442	-0.041199	0.058289	-0.14542	-0.11078	-0.46707	-0.17395	-0.006714	0.053253	-0.016937	-0.083466	-0.19669	-0.003815	-0.012665
37.507	0.006104	-0.063019	-0.037231	0.016327	-0.002441	0.018921	-0.030518	0.012512	-0.047455	-0.029602	0.26901	0.002594	0.014801	0.010986	-0.2243	-0.006561	-0.040588	0.33783	0.08316	-0.036621	0.023804	-0.10529	0.66925	-0.52506	0.030518	-0.004425	0.041199	-0.017548	-0.00946	-0.33493	-0.004425	-0.013428
37.508	0.006104	-0.054626	-0.016785	0.031433	-0.010376	0.024872	-0.030518	0.02243	-0.0354	-0.011902	-0.081329	0.004272	0.038147	-0.042419	-0.034485	-0.001526	-0.030823	0.12207	0.46753	0.040283	0.043182	-0.096893	1.1675	-0.56381	0.13275	-0.002899	-0.024109	-0.021667	0.098572	-0.39337	-0.007782	-0.016174
37.509	-0.000458	-0.0737	0.015106	0.013275	-0.009003	0.022888	-0.010376	-0.000763	-0.034637	-0.016785	-0.12329	0.006866	0.032806	-0.06897	-0.10712	0.010529	-0.022736	0.018158	-0.081482	0.15106	-0.033875	-0.037994	0.98328	-0.47318	0.25284	0.009918	-0.009918	-0.018158	0.15213	-0.40695	-0.010071	-0.012054
37.51	0.000763	-0.048676	0.046997	0.012665	-0.009308	0.028381	-0.007782	-0.002747	-0.042725	-0.008392	-0.08606	0.001373	0.02533	-0.030212	-0.054321	-0.002289	0.018311	-0.052643	-0.33798	0.10193	-0.16724	-0.052643	0.86609	-0.25009	0.19882	0.011597	0.001831	-0.014343	0.10513	-0.57602	-0.00351	-0.014801
